<svg width="456" height="456" viewBox="0 0 456 456" fill="none" xmlns="http://www.w3.org/2000/svg">
    <path d="M180.621 218V192.8H190.953C192.777 192.8 194.457 193.124 195.993 193.772C197.529 194.396 198.861 195.272 199.989 196.4C201.141 197.504 202.029 198.824 202.653 200.36C203.301 201.896 203.625 203.576 203.625 205.4C203.625 207.224 203.301 208.916 202.653 210.476C202.029 212.012 201.141 213.332 199.989 214.436C198.861 215.54 197.529 216.416 195.993 217.064C194.457 217.688 192.777 218 190.953 218H180.621ZM182.421 216.812L181.917 216.2H190.773C192.333 216.2 193.773 215.936 195.093 215.408C196.437 214.856 197.589 214.1 198.549 213.14C199.533 212.156 200.301 211.028 200.853 209.756C201.405 208.46 201.681 207.008 201.681 205.4C201.681 203.816 201.405 202.376 200.853 201.08C200.301 199.784 199.533 198.656 198.549 197.696C197.589 196.712 196.437 195.956 195.093 195.428C193.773 194.876 192.333 194.6 190.773 194.6H181.809L182.421 194.06V216.812ZM228.492 218L239.148 192.8H241.632L252.18 218H250.128L242.46 199.712C242.148 198.872 241.884 198.2 241.668 197.696C241.476 197.168 241.296 196.7 241.128 196.292C240.96 195.884 240.792 195.452 240.624 194.996C240.456 194.516 240.252 193.928 240.012 193.232H240.588C240.348 194.048 240.132 194.708 239.94 195.212C239.748 195.716 239.556 196.172 239.364 196.58C239.196 196.988 239.004 197.444 238.788 197.948C238.596 198.452 238.344 199.112 238.032 199.928L230.364 218H228.492ZM232.776 210.548L233.532 208.748H247.248L247.824 210.548H232.776ZM284.89 218V206.192L285.214 207.956L273.802 192.8H276.142L286.078 206.12H285.538L294.862 192.8H297.022L286.15 208.136L286.654 205.904V218H284.89ZM322.365 218V216.488L341.013 193.736L341.517 194.6H323.301V192.8H342.849V194.276L324.273 217.064L323.697 216.2H343.245V218H322.365ZM198.726 263V237.8H203.406V263H198.726ZM180.546 263V237.8H185.226V263H180.546ZM182.49 252.704V248.312H200.994V252.704H182.49ZM212.609 263V237.8H231.113V242.048H217.217V258.752H231.257V263H212.609ZM214.913 252.2V248.024H229.277V252.2H214.913ZM239.573 263V237.8H244.253V258.68H257.897V263H239.573ZM265.554 263V237.8H277.794C279.282 237.8 280.626 238.148 281.826 238.844C283.05 239.54 284.022 240.488 284.742 241.688C285.486 242.888 285.858 244.232 285.858 245.72C285.858 247.256 285.474 248.648 284.706 249.896C283.962 251.12 282.954 252.104 281.682 252.848C280.434 253.568 279.042 253.928 277.506 253.928H270.234V263H265.554ZM270.234 249.608H277.074C277.77 249.608 278.418 249.44 279.018 249.104C279.618 248.744 280.098 248.276 280.458 247.7C280.818 247.124 280.998 246.476 280.998 245.756C280.998 245.06 280.818 244.448 280.458 243.92C280.098 243.368 279.618 242.936 279.018 242.624C278.418 242.288 277.77 242.12 277.074 242.12H270.234V249.608ZM293.362 263V237.8H311.866V242.048H297.97V258.752H312.01V263H293.362ZM295.666 252.2V248.024H310.03V252.2H295.666ZM320.327 263V237.8H332.783C334.343 237.8 335.759 238.148 337.031 238.844C338.303 239.54 339.299 240.488 340.019 241.688C340.763 242.888 341.135 244.244 341.135 245.756C341.135 247.244 340.751 248.6 339.983 249.824C339.215 251.048 338.183 252.02 336.887 252.74C335.591 253.46 334.151 253.82 332.567 253.82H324.899V263H320.327ZM336.743 263L329.471 251.624L334.367 250.724L342.359 263.036L336.743 263ZM324.899 249.752H332.423C333.167 249.752 333.827 249.584 334.403 249.248C335.003 248.888 335.471 248.42 335.807 247.844C336.167 247.244 336.347 246.584 336.347 245.864C336.347 245.12 336.155 244.46 335.771 243.884C335.387 243.308 334.859 242.852 334.187 242.516C333.515 242.18 332.747 242.012 331.883 242.012H324.899V249.752Z"
          fill="white"/>
    <mask id="path-2-inside-1_86_269" fill="white">
        <path fill-rule="evenodd" clip-rule="evenodd"
              d="M144.176 164H78V292H144.176V164ZM97.8719 206.227H124.418C128.09 206.227 131.054 209.16 131.054 212.777V236.84C131.054 240.457 128.09 243.391 124.418 243.391H122.759C121.011 243.391 119.308 244.074 118.069 245.309L114.286 249.037C112.561 250.735 109.751 250.735 108.026 249.037L104.243 245.309C103.004 244.074 101.323 243.391 99.5532 243.391H97.8719C94.1997 243.391 91.2355 240.457 91.2355 236.84V212.777C91.2355 209.16 94.1997 206.227 97.8719 206.227ZM109.22 232.164C109.22 231.26 108.468 230.51 107.561 230.51V230.532H102.164C102.717 229.54 103.823 228.79 104.995 227.996L105.008 227.987C106.886 226.709 109.22 225.121 109.22 222.019C109.22 219.041 106.809 216.637 103.823 216.637C100.836 216.637 98.425 219.063 98.425 222.019C98.425 222.923 99.1771 223.673 100.084 223.673C100.991 223.673 101.743 222.923 101.743 222.019C101.743 220.872 102.65 219.923 103.8 219.923C104.951 219.923 105.88 220.85 105.88 221.997C105.88 223.276 104.884 224.026 103.115 225.217L103.065 225.251C101.396 226.389 99.5234 227.666 98.7568 230.003C98.4913 230.885 98.6241 231.811 99.1771 232.561C99.7523 233.355 100.659 233.818 101.633 233.818H107.561C108.468 233.818 109.22 233.069 109.22 232.164ZM121.741 230.664H122.206C123.113 230.664 123.865 229.937 123.865 229.032C123.865 228.128 123.113 227.378 122.206 227.378H121.719V219.615C121.741 218.291 120.856 217.144 119.595 216.769C118.334 216.417 116.985 216.924 116.277 218.049C114.684 220.607 112.937 223.54 111.432 226.121C110.879 227.047 110.879 228.216 111.432 229.165C111.985 230.091 112.981 230.664 114.065 230.664H114.087H118.423V232.186C118.423 233.091 119.175 233.84 120.082 233.84C120.989 233.84 121.741 233.091 121.741 232.186V230.664ZM118.421 227.335V220.873C117.115 222.99 115.766 225.262 114.549 227.335H118.421ZM149.177 169H373V287H149.177V169ZM144.177 164H149.177H373H378V169V287V292H373H149.177H144.177V287V169V164Z"/>
    </mask>
    <path fill-rule="evenodd" clip-rule="evenodd"
          d="M144.176 164H78V292H144.176V164ZM97.8719 206.227H124.418C128.09 206.227 131.054 209.16 131.054 212.777V236.84C131.054 240.457 128.09 243.391 124.418 243.391H122.759C121.011 243.391 119.308 244.074 118.069 245.309L114.286 249.037C112.561 250.735 109.751 250.735 108.026 249.037L104.243 245.309C103.004 244.074 101.323 243.391 99.5532 243.391H97.8719C94.1997 243.391 91.2355 240.457 91.2355 236.84V212.777C91.2355 209.16 94.1997 206.227 97.8719 206.227ZM109.22 232.164C109.22 231.26 108.468 230.51 107.561 230.51V230.532H102.164C102.717 229.54 103.823 228.79 104.995 227.996L105.008 227.987C106.886 226.709 109.22 225.121 109.22 222.019C109.22 219.041 106.809 216.637 103.823 216.637C100.836 216.637 98.425 219.063 98.425 222.019C98.425 222.923 99.1771 223.673 100.084 223.673C100.991 223.673 101.743 222.923 101.743 222.019C101.743 220.872 102.65 219.923 103.8 219.923C104.951 219.923 105.88 220.85 105.88 221.997C105.88 223.276 104.884 224.026 103.115 225.217L103.065 225.251C101.396 226.389 99.5234 227.666 98.7568 230.003C98.4913 230.885 98.6241 231.811 99.1771 232.561C99.7523 233.355 100.659 233.818 101.633 233.818H107.561C108.468 233.818 109.22 233.069 109.22 232.164ZM121.741 230.664H122.206C123.113 230.664 123.865 229.937 123.865 229.032C123.865 228.128 123.113 227.378 122.206 227.378H121.719V219.615C121.741 218.291 120.856 217.144 119.595 216.769C118.334 216.417 116.985 216.924 116.277 218.049C114.684 220.607 112.937 223.54 111.432 226.121C110.879 227.047 110.879 228.216 111.432 229.165C111.985 230.091 112.981 230.664 114.065 230.664H114.087H118.423V232.186C118.423 233.091 119.175 233.84 120.082 233.84C120.989 233.84 121.741 233.091 121.741 232.186V230.664ZM118.421 227.335V220.873C117.115 222.99 115.766 225.262 114.549 227.335H118.421ZM149.177 169H373V287H149.177V169ZM144.177 164H149.177H373H378V169V287V292H373H149.177H144.177V287V169V164Z"
          fill="white"/>
    <path d="M78 164V159H73V164H78ZM144.176 164H149.176V159H144.176V164ZM78 292H73V297H78V292ZM144.176 292V297H149.176V292H144.176ZM118.069 245.309L121.578 248.871L121.589 248.861L121.599 248.85L118.069 245.309ZM114.286 249.037L117.793 252.6L117.795 252.598L114.286 249.037ZM108.026 249.037L104.516 252.598L104.518 252.6L108.026 249.037ZM104.243 245.309L100.713 248.85L100.723 248.861L100.734 248.871L104.243 245.309ZM107.561 230.51V225.51H102.561V230.51H107.561ZM107.561 230.532V235.532H112.561V230.532H107.561ZM102.164 230.532L97.7958 228.098L93.6536 235.532H102.164V230.532ZM104.995 227.996L107.799 232.136L107.807 232.13L104.995 227.996ZM105.008 227.987L107.82 232.121L107.821 232.121L105.008 227.987ZM103.115 225.217L100.323 221.069L100.31 221.077L100.297 221.086L103.115 225.217ZM103.065 225.251L105.882 229.382L105.882 229.381L103.065 225.251ZM98.7568 230.003L94.0059 228.444L93.9867 228.503L93.9688 228.562L98.7568 230.003ZM99.1771 232.561L103.226 229.628L103.214 229.611L103.201 229.594L99.1771 232.561ZM121.741 230.664V225.664H116.741V230.664H121.741ZM121.719 227.378H116.719V232.378H121.719V227.378ZM121.719 219.615L116.72 219.531L116.719 219.573V219.615H121.719ZM119.595 216.769L121.02 211.977L120.982 211.965L120.943 211.954L119.595 216.769ZM116.277 218.049L112.045 215.385L112.039 215.396L112.032 215.406L116.277 218.049ZM111.432 226.121L115.726 228.684L115.739 228.662L115.752 228.639L111.432 226.121ZM111.432 229.165L107.113 231.683L107.126 231.706L107.139 231.728L111.432 229.165ZM118.423 230.664H123.423V225.664H118.423V230.664ZM118.421 220.873H123.421V203.233L114.164 218.249L118.421 220.873ZM118.421 227.335V232.335H123.421V227.335H118.421ZM114.549 227.335L110.237 224.805L105.818 232.335H114.549V227.335ZM373 169H378V164H373V169ZM149.177 169V164H144.177V169H149.177ZM373 287V292H378V287H373ZM149.177 287H144.177V292H149.177V287ZM144.177 164V159H139.177V164H144.177ZM378 164H383V159H378V164ZM378 292V297H383V292H378ZM144.177 292H139.177V297H144.177V292ZM78 169H144.176V159H78V169ZM83 292V164H73V292H83ZM144.176 287H78V297H144.176V287ZM139.176 164V292H149.176V164H139.176ZM124.418 201.227H97.8719V211.227H124.418V201.227ZM136.054 212.777C136.054 206.341 130.793 201.227 124.418 201.227V211.227C125.386 211.227 126.054 211.979 126.054 212.777H136.054ZM136.054 236.84V212.777H126.054V236.84H136.054ZM124.418 248.391C130.793 248.391 136.054 243.276 136.054 236.84H126.054C126.054 237.638 125.386 238.391 124.418 238.391V248.391ZM122.759 248.391H124.418V238.391H122.759V248.391ZM121.599 248.85C121.874 248.577 122.296 248.391 122.759 248.391V238.391C119.726 238.391 116.742 239.572 114.539 241.769L121.599 248.85ZM117.795 252.598L121.578 248.871L114.56 241.748L110.777 245.475L117.795 252.598ZM104.518 252.6C108.19 256.214 114.122 256.214 117.793 252.6L110.779 245.473C110.901 245.354 111.048 245.311 111.156 245.311C111.264 245.311 111.411 245.354 111.533 245.473L104.518 252.6ZM100.734 248.871L104.516 252.598L111.535 245.475L107.752 241.748L100.734 248.871ZM99.5532 248.391C100.029 248.391 100.432 248.571 100.713 248.85L107.773 241.769C105.576 239.578 102.616 238.391 99.5532 238.391V248.391ZM97.8719 248.391H99.5532V238.391H97.8719V248.391ZM86.2355 236.84C86.2355 243.276 91.4962 248.391 97.8719 248.391V238.391C96.9033 238.391 96.2355 237.638 96.2355 236.84H86.2355ZM86.2355 212.777V236.84H96.2355V212.777H86.2355ZM97.8719 201.227C91.4962 201.227 86.2355 206.341 86.2355 212.777H96.2355C96.2355 211.979 96.9033 211.227 97.8719 211.227V201.227ZM107.561 235.51C105.721 235.51 104.22 234.035 104.22 232.164H114.22C114.22 228.485 111.215 225.51 107.561 225.51V235.51ZM112.561 230.532V230.51H102.561V230.532H112.561ZM102.164 235.532H107.561V225.532H102.164V235.532ZM102.191 223.856C101.338 224.434 99.0486 225.85 97.7958 228.098L106.531 232.966C106.391 233.218 106.297 233.24 106.551 233.028C106.815 232.808 107.166 232.564 107.799 232.136L102.191 223.856ZM102.196 223.852L102.183 223.861L107.807 232.13L107.82 232.121L102.196 223.852ZM104.22 222.019C104.22 222.145 104.201 222.182 104.2 222.183C104.194 222.198 104.162 222.272 104.039 222.413C103.909 222.564 103.705 222.758 103.382 223.01C103.048 223.271 102.684 223.52 102.196 223.853L107.821 232.121C109.36 231.074 114.22 228.109 114.22 222.019H104.22ZM103.823 221.637C104.062 221.637 104.22 221.817 104.22 222.019H114.22C114.22 216.266 109.556 211.637 103.823 211.637V221.637ZM103.425 222.019C103.425 221.825 103.597 221.637 103.823 221.637V211.637C98.0755 211.637 93.425 216.301 93.425 222.019H103.425ZM100.084 218.673C101.924 218.673 103.425 220.147 103.425 222.019H93.425C93.425 225.698 96.4297 228.673 100.084 228.673V218.673ZM96.7432 222.019C96.7432 220.147 98.2437 218.673 100.084 218.673V228.673C103.738 228.673 106.743 225.698 106.743 222.019H96.7432ZM103.8 214.923C99.765 214.923 96.7432 218.236 96.7432 222.019H106.743C106.743 223.508 105.535 224.923 103.8 224.923V214.923ZM110.88 221.997C110.88 218.074 107.698 214.923 103.8 214.923V224.923C102.203 224.923 100.88 223.625 100.88 221.997H110.88ZM105.906 229.365C106.699 228.832 107.874 228.046 108.791 227.078C109.913 225.894 110.88 224.212 110.88 221.997H100.88C100.88 221.632 100.959 221.217 101.137 220.82C101.303 220.453 101.488 220.247 101.531 220.201C101.563 220.168 101.514 220.225 101.285 220.397C101.058 220.568 100.761 220.774 100.323 221.069L105.906 229.365ZM105.882 229.381L105.932 229.347L100.297 221.086L100.247 221.12L105.882 229.381ZM103.508 231.561C103.582 231.334 103.719 231.093 104.064 230.757C104.473 230.357 104.993 229.988 105.882 229.382L100.247 221.12C98.7561 222.137 95.3753 224.27 94.0059 228.444L103.508 231.561ZM103.201 229.594C103.645 230.195 103.702 230.921 103.545 231.443L93.9688 228.562C93.2806 230.849 93.6036 233.428 95.1531 235.529L103.201 229.594ZM101.633 228.818C102.269 228.818 102.865 229.13 103.226 229.628L95.1279 235.494C96.6392 237.581 99.049 238.818 101.633 238.818V228.818ZM107.561 228.818H101.633V238.818H107.561V228.818ZM104.22 232.164C104.22 230.293 105.721 228.818 107.561 228.818V238.818C111.215 238.818 114.22 235.844 114.22 232.164H104.22ZM122.206 225.664H121.741V235.664H122.206V225.664ZM118.865 229.032C118.865 227.074 120.453 225.664 122.206 225.664V235.664C125.772 235.664 128.865 232.799 128.865 229.032H118.865ZM122.206 232.378C120.365 232.378 118.865 230.904 118.865 229.032H128.865C128.865 225.353 125.86 222.378 122.206 222.378V232.378ZM121.719 232.378H122.206V222.378H121.719V232.378ZM116.719 219.615V227.378H126.719V219.615H116.719ZM118.17 221.562C117.388 221.329 116.702 220.561 116.72 219.531L126.718 219.698C126.78 216.021 124.324 212.959 121.02 211.977L118.17 221.562ZM120.509 220.712C120.027 221.478 119.097 221.822 118.248 221.584L120.943 211.954C117.571 211.011 113.943 212.37 112.045 215.385L120.509 220.712ZM115.752 228.639C117.242 226.084 118.963 223.195 120.522 220.691L112.032 215.406C110.406 218.019 108.632 220.997 107.113 223.603L115.752 228.639ZM115.752 226.646C116.095 227.235 116.126 228.013 115.726 228.684L107.139 223.558C105.633 226.081 105.663 229.197 107.113 231.683L115.752 226.646ZM114.065 225.664C114.763 225.664 115.388 226.036 115.726 226.602L107.139 231.728C108.583 234.146 111.199 235.664 114.065 235.664V225.664ZM114.087 225.664H114.065V235.664H114.087V225.664ZM118.423 225.664H114.087V235.664H118.423V225.664ZM123.423 232.186V230.664H113.423V232.186H123.423ZM120.082 228.84C121.922 228.84 123.423 230.315 123.423 232.186H113.423C113.423 235.866 116.428 238.84 120.082 238.84V228.84ZM116.741 232.186C116.741 230.315 118.242 228.84 120.082 228.84V238.84C123.736 238.84 126.741 235.866 126.741 232.186H116.741ZM116.741 230.664V232.186H126.741V230.664H116.741ZM113.421 220.873V227.335H123.421V220.873H113.421ZM118.862 229.866C120.071 227.806 121.399 225.57 122.677 223.497L114.164 218.249C112.832 220.411 111.461 222.718 110.237 224.805L118.862 229.866ZM118.421 222.335H114.549V232.335H118.421V222.335ZM373 164H149.177V174H373V164ZM378 287V169H368V287H378ZM149.177 292H373V282H149.177V292ZM144.177 169V287H154.177V169H144.177ZM149.177 159H144.177V169H149.177V159ZM373 159H149.177V169H373V159ZM378 159H373V169H378V159ZM383 169V164H373V169H383ZM383 287V169H373V287H383ZM383 292V287H373V292H383ZM373 297H378V287H373V297ZM149.177 297H373V287H149.177V297ZM144.177 297H149.177V287H144.177V297ZM139.177 287V292H149.177V287H139.177ZM139.177 169V287H149.177V169H139.177ZM139.177 164V169H149.177V164H139.177Z"
          fill="white" mask="url(#path-2-inside-1_86_269)"/>
</svg>
