<svg width="456" height="456" viewBox="0 0 456 456" fill="none" xmlns="http://www.w3.org/2000/svg">
    <path d="M134.464 218V173.2H152.832C156.074 173.2 159.061 173.776 161.792 174.928C164.522 176.037 166.89 177.595 168.896 179.6C170.944 181.563 172.522 183.909 173.632 186.64C174.784 189.371 175.36 192.357 175.36 195.6C175.36 198.843 174.784 201.851 173.632 204.624C172.522 207.355 170.944 209.701 168.896 211.664C166.89 213.627 164.522 215.184 161.792 216.336C159.061 217.445 156.074 218 152.832 218H134.464ZM137.664 215.888L136.768 214.8H152.512C155.285 214.8 157.845 214.331 160.192 213.392C162.581 212.411 164.629 211.067 166.336 209.36C168.085 207.611 169.45 205.605 170.432 203.344C171.413 201.04 171.904 198.459 171.904 195.6C171.904 192.784 171.413 190.224 170.432 187.92C169.45 185.616 168.085 183.611 166.336 181.904C164.629 180.155 162.581 178.811 160.192 177.872C157.845 176.891 155.285 176.4 152.512 176.4H136.576L137.664 175.44V215.888ZM219.568 218L238.512 173.2H242.928L261.68 218H258.032L244.4 185.488C243.845 183.995 243.376 182.8 242.992 181.904C242.65 180.965 242.33 180.133 242.032 179.408C241.733 178.683 241.434 177.915 241.136 177.104C240.837 176.251 240.474 175.205 240.048 173.968H241.072C240.645 175.419 240.261 176.592 239.92 177.488C239.578 178.384 239.237 179.195 238.896 179.92C238.597 180.645 238.256 181.456 237.872 182.352C237.53 183.248 237.082 184.421 236.528 185.872L222.896 218H219.568ZM227.184 204.752L228.528 201.552H252.912L253.936 204.752H227.184ZM319.83 218V197.008L320.406 200.144L300.118 173.2H304.278L321.942 196.88H320.982L337.558 173.2H341.398L322.07 200.464L322.966 196.496V218H319.83ZM386.452 218V215.312L419.604 174.864L420.5 176.4H388.116V173.2H422.868V175.824L389.844 216.336L388.82 214.8H423.572V218H386.452ZM166.65 283V238.2H174.97V283H166.65ZM134.33 283V238.2H142.65V283H134.33ZM137.786 264.696V256.888H170.682V264.696H137.786ZM191.33 283V238.2H224.226V245.752H199.522V275.448H224.482V283H191.33ZM195.426 263.8V256.376H220.962V263.8H195.426ZM239.268 283V238.2H247.588V275.32H271.844V283H239.268ZM285.455 283V238.2H307.215C309.861 238.2 312.25 238.819 314.383 240.056C316.559 241.293 318.287 242.979 319.567 245.112C320.89 247.245 321.551 249.635 321.551 252.28C321.551 255.011 320.869 257.485 319.503 259.704C318.181 261.88 316.389 263.629 314.127 264.952C311.909 266.232 309.434 266.872 306.703 266.872H293.775V283H285.455ZM293.775 259.192H305.935C307.173 259.192 308.325 258.893 309.391 258.296C310.458 257.656 311.311 256.824 311.951 255.8C312.591 254.776 312.911 253.624 312.911 252.344C312.911 251.107 312.591 250.019 311.951 249.08C311.311 248.099 310.458 247.331 309.391 246.776C308.325 246.179 307.173 245.88 305.935 245.88H293.775V259.192ZM334.893 283V238.2H367.789V245.752H343.085V275.448H368.045V283H334.893ZM338.989 263.8V256.376H364.525V263.8H338.989ZM382.83 283V238.2H404.974C407.748 238.2 410.265 238.819 412.526 240.056C414.788 241.293 416.558 242.979 417.838 245.112C419.161 247.245 419.822 249.656 419.822 252.344C419.822 254.989 419.14 257.4 417.774 259.576C416.409 261.752 414.574 263.48 412.27 264.76C409.966 266.04 407.406 266.68 404.59 266.68H390.958V283H382.83ZM412.014 283L399.086 262.776L407.79 261.176L421.998 283.064L412.014 283ZM390.958 259.448H404.334C405.657 259.448 406.83 259.149 407.854 258.552C408.921 257.912 409.753 257.08 410.35 256.056C410.99 254.989 411.31 253.816 411.31 252.536C411.31 251.213 410.969 250.04 410.286 249.016C409.604 247.992 408.665 247.181 407.47 246.584C406.276 245.987 404.91 245.688 403.374 245.688H390.958V259.448Z"
          fill="white"/>
    <mask id="path-2-inside-1_76_267" fill="white">
        <path fill-rule="evenodd" clip-rule="evenodd"
              d="M103.454 133H5V324H103.454H108.454H446.323H451.323V319V138V133H446.323H108.454H103.454ZM34.5641 196.01H74.0575C79.5207 196.01 83.9308 200.387 83.9308 205.785V241.691C83.9308 247.088 79.5207 251.466 74.0575 251.466H71.5891C68.9892 251.466 66.455 252.486 64.612 254.329L58.9842 259.891C56.4171 262.425 52.2374 262.425 49.6703 259.891L44.0425 254.329C42.1995 252.486 39.6982 251.466 37.0653 251.466H34.5641C29.1008 251.466 24.6907 247.088 24.6907 241.691V205.785C24.6907 200.387 29.1008 196.01 34.5641 196.01ZM51.4475 234.714C51.4475 233.364 50.3285 232.246 48.9792 232.246V232.278H40.9488C41.7716 230.797 43.4172 229.678 45.1615 228.494L45.181 228.48C47.9751 226.574 51.4475 224.204 51.4475 219.575C51.4475 215.132 47.8602 211.544 43.4172 211.544C38.9742 211.544 35.3869 215.165 35.3869 219.575C35.3869 220.924 36.5058 222.043 37.8552 222.043C39.2045 222.043 40.3235 220.924 40.3235 219.575C40.3235 217.863 41.6729 216.448 43.3843 216.448C45.0956 216.448 46.4779 217.83 46.4779 219.542C46.4779 221.451 44.9969 222.57 42.364 224.347L42.2895 224.398C39.8068 226.096 37.021 228.002 35.8805 231.489C35.4856 232.805 35.6831 234.187 36.5058 235.306C37.3615 236.491 38.7109 237.182 40.159 237.182H48.9792C50.3285 237.182 51.4475 236.063 51.4475 234.714ZM70.0752 232.476H70.7664C72.1157 232.476 73.2347 231.39 73.2347 230.04C73.2347 228.691 72.1157 227.572 70.7664 227.572H70.0423V215.987C70.0752 214.013 68.7588 212.301 66.8828 211.742C65.0069 211.215 62.9993 211.972 61.9462 213.651C59.5766 217.468 56.9766 221.846 54.7386 225.696C53.9158 227.078 53.9158 228.823 54.7386 230.238C55.5614 231.62 57.0424 232.476 58.655 232.476H58.688H65.1385V234.747C65.1385 236.096 66.2575 237.215 67.6069 237.215C68.9562 237.215 70.0752 236.096 70.0752 234.747V232.476ZM65.1356 227.508V217.865C63.1938 221.025 61.1862 224.415 59.3761 227.508H65.1356ZM108.454 138H446.323V319H108.454V138Z"/>
    </mask>
    <path fill-rule="evenodd" clip-rule="evenodd"
          d="M103.454 133H5V324H103.454H108.454H446.323H451.323V319V138V133H446.323H108.454H103.454ZM34.5641 196.01H74.0575C79.5207 196.01 83.9308 200.387 83.9308 205.785V241.691C83.9308 247.088 79.5207 251.466 74.0575 251.466H71.5891C68.9892 251.466 66.455 252.486 64.612 254.329L58.9842 259.891C56.4171 262.425 52.2374 262.425 49.6703 259.891L44.0425 254.329C42.1995 252.486 39.6982 251.466 37.0653 251.466H34.5641C29.1008 251.466 24.6907 247.088 24.6907 241.691V205.785C24.6907 200.387 29.1008 196.01 34.5641 196.01ZM51.4475 234.714C51.4475 233.364 50.3285 232.246 48.9792 232.246V232.278H40.9488C41.7716 230.797 43.4172 229.678 45.1615 228.494L45.181 228.48C47.9751 226.574 51.4475 224.204 51.4475 219.575C51.4475 215.132 47.8602 211.544 43.4172 211.544C38.9742 211.544 35.3869 215.165 35.3869 219.575C35.3869 220.924 36.5058 222.043 37.8552 222.043C39.2045 222.043 40.3235 220.924 40.3235 219.575C40.3235 217.863 41.6729 216.448 43.3843 216.448C45.0956 216.448 46.4779 217.83 46.4779 219.542C46.4779 221.451 44.9969 222.57 42.364 224.347L42.2895 224.398C39.8068 226.096 37.021 228.002 35.8805 231.489C35.4856 232.805 35.6831 234.187 36.5058 235.306C37.3615 236.491 38.7109 237.182 40.159 237.182H48.9792C50.3285 237.182 51.4475 236.063 51.4475 234.714ZM70.0752 232.476H70.7664C72.1157 232.476 73.2347 231.39 73.2347 230.04C73.2347 228.691 72.1157 227.572 70.7664 227.572H70.0423V215.987C70.0752 214.013 68.7588 212.301 66.8828 211.742C65.0069 211.215 62.9993 211.972 61.9462 213.651C59.5766 217.468 56.9766 221.846 54.7386 225.696C53.9158 227.078 53.9158 228.823 54.7386 230.238C55.5614 231.62 57.0424 232.476 58.655 232.476H58.688H65.1385V234.747C65.1385 236.096 66.2575 237.215 67.6069 237.215C68.9562 237.215 70.0752 236.096 70.0752 234.747V232.476ZM65.1356 227.508V217.865C63.1938 221.025 61.1862 224.415 59.3761 227.508H65.1356ZM108.454 138H446.323V319H108.454V138Z"
          fill="white"/>
    <path d="M5 133V128H0V133H5ZM5 324H0V329H5V324ZM451.323 324V329H456.323V324H451.323ZM451.323 133H456.323V128H451.323V133ZM64.612 254.329L68.1266 257.885L68.1371 257.875L68.1475 257.864L64.612 254.329ZM58.9842 259.891L62.4968 263.449L62.4988 263.447L58.9842 259.891ZM49.6703 259.891L46.1556 263.447L46.1577 263.449L49.6703 259.891ZM44.0425 254.329L40.507 257.864L40.5174 257.875L40.5278 257.885L44.0425 254.329ZM48.9792 232.246V227.246H43.9792V232.246H48.9792ZM48.9792 232.278V237.278H53.9792V232.278H48.9792ZM40.9488 232.278L36.5781 229.85L32.4513 237.278H40.9488V232.278ZM45.1615 228.494L47.9709 232.63L47.9806 232.623L45.1615 228.494ZM45.181 228.48L42.3628 224.35L42.3618 224.351L45.181 228.48ZM42.364 224.347L39.5667 220.203L39.5538 220.211L39.5409 220.22L42.364 224.347ZM42.2895 224.398L39.4664 220.271L39.4663 220.271L42.2895 224.398ZM35.8805 231.489L31.1283 229.934L31.1091 229.993L31.0914 230.052L35.8805 231.489ZM36.5058 235.306L40.5592 232.379L40.5467 232.361L40.5341 232.344L36.5058 235.306ZM70.0752 232.476V227.476H65.0752V232.476H70.0752ZM70.0423 227.572H65.0423V232.572H70.0423V227.572ZM70.0423 215.987L65.043 215.904L65.0423 215.946V215.987H70.0423ZM66.8828 211.742L68.3119 206.95L68.2731 206.939L68.2341 206.928L66.8828 211.742ZM61.9462 213.651L57.7108 210.993L57.7044 211.004L57.698 211.014L61.9462 213.651ZM54.7386 225.696L59.0351 228.254L59.0484 228.231L59.0615 228.209L54.7386 225.696ZM54.7386 230.238L50.4161 232.751L50.429 232.773L50.4422 232.795L54.7386 230.238ZM65.1385 232.476H70.1385V227.476H65.1385V232.476ZM65.1356 217.865H70.1356V200.181L60.8758 215.247L65.1356 217.865ZM65.1356 227.508V232.508H70.1356V227.508H65.1356ZM59.3761 227.508L55.0606 224.983L50.6576 232.508H59.3761V227.508ZM446.323 138H451.323V133H446.323V138ZM108.454 138V133H103.454V138H108.454ZM446.323 319V324H451.323V319H446.323ZM108.454 319H103.454V324H108.454V319ZM5 138H103.454V128H5V138ZM10 324V133H0V324H10ZM103.454 319H5V329H103.454V319ZM103.454 329H108.454V319H103.454V329ZM108.454 329H446.323V319H108.454V329ZM446.323 329H451.323V319H446.323V329ZM456.323 324V319H446.323V324H456.323ZM456.323 319V138H446.323V319H456.323ZM456.323 138V133H446.323V138H456.323ZM451.323 128H446.323V138H451.323V128ZM446.323 128H108.454V138H446.323V128ZM108.454 128H103.454V138H108.454V128ZM74.0575 191.01H34.5641V201.01H74.0575V191.01ZM88.9308 205.785C88.9308 197.583 82.2384 191.01 74.0575 191.01V201.01C76.8031 201.01 78.9308 203.192 78.9308 205.785H88.9308ZM88.9308 241.691V205.785H78.9308V241.691H88.9308ZM74.0575 256.466C82.2384 256.466 88.9308 249.893 88.9308 241.691H78.9308C78.9308 244.283 76.8031 246.466 74.0575 246.466V256.466ZM71.5891 256.466H74.0575V246.466H71.5891V256.466ZM68.1475 257.864C69.0272 256.985 70.2785 256.466 71.5891 256.466V246.466C67.6998 246.466 63.8828 247.987 61.0764 250.793L68.1475 257.864ZM62.4988 263.447L68.1266 257.885L61.0973 250.773L55.4695 256.335L62.4988 263.447ZM46.1577 263.449C50.672 267.906 57.9825 267.906 62.4968 263.449L55.4715 256.333C54.8517 256.944 53.8027 256.944 53.1829 256.333L46.1577 263.449ZM40.5278 257.885L46.1556 263.447L53.185 256.335L47.5572 250.773L40.5278 257.885ZM37.0653 256.466C38.4 256.466 39.6211 256.979 40.507 257.864L47.578 250.793C44.7778 247.993 40.9965 246.466 37.0653 246.466V256.466ZM34.5641 256.466H37.0653V246.466H34.5641V256.466ZM19.6907 241.691C19.6907 249.893 26.3831 256.466 34.5641 256.466V246.466C31.8185 246.466 29.6907 244.283 29.6907 241.691H19.6907ZM19.6907 205.785V241.691H29.6907V205.785H19.6907ZM34.5641 191.01C26.3831 191.01 19.6907 197.583 19.6907 205.785H29.6907C29.6907 203.192 31.8185 201.01 34.5641 201.01V191.01ZM48.9792 237.246C47.5671 237.246 46.4475 236.126 46.4475 234.714H56.4475C56.4475 230.603 53.0899 227.246 48.9792 227.246V237.246ZM53.9792 232.278V232.246H43.9792V232.278H53.9792ZM40.9488 237.278H48.9792V227.278H40.9488V237.278ZM42.3521 224.358C40.9252 225.327 38.0987 227.113 36.5781 229.85L45.3196 234.707C45.3153 234.714 45.4252 234.522 45.919 234.109C46.4234 233.687 47.0526 233.253 47.9709 232.63L42.3521 224.358ZM42.3618 224.351L42.3423 224.364L47.9806 232.623L48.0001 232.61L42.3618 224.351ZM46.4475 219.575C46.4475 220.472 46.1658 221.1 45.5782 221.78C44.8567 222.616 43.8465 223.338 42.3628 224.35L47.9991 232.61C50.4594 230.932 56.4475 227.185 56.4475 219.575H46.4475ZM43.4172 216.544C45.0988 216.544 46.4475 217.893 46.4475 219.575H56.4475C56.4475 212.37 50.6216 206.544 43.4172 206.544V216.544ZM40.3869 219.575C40.3869 217.913 41.7489 216.544 43.4172 216.544V206.544C36.1994 206.544 30.3869 212.417 30.3869 219.575H40.3869ZM37.8552 217.043C39.2673 217.043 40.3869 218.163 40.3869 219.575H30.3869C30.3869 223.685 33.7444 227.043 37.8552 227.043V217.043ZM35.3235 219.575C35.3235 218.163 36.4431 217.043 37.8552 217.043V227.043C41.966 227.043 45.3235 223.685 45.3235 219.575H35.3235ZM43.3843 211.448C38.7739 211.448 35.3235 215.242 35.3235 219.575H45.3235C45.3235 220.485 44.5719 221.448 43.3843 221.448V211.448ZM51.4779 219.542C51.4779 215.069 47.8571 211.448 43.3843 211.448V221.448C42.3342 221.448 41.4779 220.592 41.4779 219.542H51.4779ZM45.1614 228.491C46.3856 227.665 47.8975 226.64 49.0434 225.427C50.3941 223.997 51.4779 222.067 51.4779 219.542H41.4779C41.4779 219.337 41.5254 219.064 41.6436 218.801C41.7487 218.567 41.8453 218.484 41.7732 218.561C41.6897 218.649 41.4991 218.826 41.1034 219.125C40.7098 219.423 40.22 219.762 39.5667 220.203L45.1614 228.491ZM45.1125 228.525L45.1871 228.474L39.5409 220.22L39.4664 220.271L45.1125 228.525ZM40.6327 233.043C41.1728 231.392 42.4546 230.343 45.1126 228.525L39.4663 220.271C37.1589 221.85 32.8691 224.612 31.1283 229.934L40.6327 233.043ZM40.5341 232.344C40.5997 232.434 40.6541 232.557 40.6751 232.69C40.6952 232.817 40.6772 232.9 40.6697 232.925L31.0914 230.052C30.2763 232.769 30.6619 235.799 32.4776 238.268L40.5341 232.344ZM40.159 232.182C40.2347 232.182 40.3173 232.201 40.393 232.24C40.4688 232.279 40.5246 232.331 40.5592 232.379L32.4524 238.234C34.2417 240.711 37.0944 242.182 40.159 242.182V232.182ZM48.9792 232.182H40.159V242.182H48.9792V232.182ZM46.4475 234.714C46.4475 233.302 47.5671 232.182 48.9792 232.182V242.182C53.0899 242.182 56.4475 238.825 56.4475 234.714H46.4475ZM70.7664 227.476H70.0752V237.476H70.7664V227.476ZM68.2347 230.04C68.2347 228.541 69.442 227.476 70.7664 227.476V237.476C74.7894 237.476 78.2347 234.238 78.2347 230.04H68.2347ZM70.7664 232.572C69.3543 232.572 68.2347 231.453 68.2347 230.04H78.2347C78.2347 225.93 74.8771 222.572 70.7664 222.572V232.572ZM70.0423 232.572H70.7664V222.572H70.0423V232.572ZM65.0423 215.987V227.572H75.0423V215.987H65.0423ZM65.4538 216.533C65.2803 216.482 65.0369 216.273 65.043 215.904L75.0416 216.071C75.1136 211.753 72.2372 208.121 68.3119 206.95L65.4538 216.533ZM66.1815 216.308C66.0482 216.521 65.7751 216.624 65.5315 216.556L68.2341 206.928C64.2387 205.806 59.9504 207.424 57.7108 210.993L66.1815 216.308ZM59.0615 228.209C61.2848 224.383 63.8587 220.051 66.1944 216.288L57.698 211.014C55.2944 214.886 52.6683 219.308 50.4157 223.184L59.0615 228.209ZM59.0612 227.725C59.1308 227.845 59.1612 228.042 59.0351 228.254L50.4422 223.139C48.6705 226.115 48.7008 229.801 50.4161 232.751L59.0612 227.725ZM58.655 227.476C58.8318 227.476 58.9702 227.571 59.0351 227.681L50.4422 232.795C52.1526 235.669 55.2529 237.476 58.655 237.476V227.476ZM58.688 227.476H58.655V237.476H58.688V227.476ZM65.1385 227.476H58.688V237.476H65.1385V227.476ZM70.1385 234.747V232.476H60.1385V234.747H70.1385ZM67.6069 232.215C69.0189 232.215 70.1385 233.335 70.1385 234.747H60.1385C60.1385 238.858 63.4961 242.215 67.6069 242.215V232.215ZM65.0752 234.747C65.0752 233.335 66.1948 232.215 67.6069 232.215V242.215C71.7177 242.215 75.0752 238.858 75.0752 234.747H65.0752ZM65.0752 232.476V234.747H75.0752V232.476H65.0752ZM60.1356 217.865V227.508H70.1356V217.865H60.1356ZM63.6917 230.033C65.4941 226.953 67.481 223.598 69.3954 220.483L60.8758 215.247C58.9066 218.451 56.8783 221.876 55.0606 224.983L63.6917 230.033ZM65.1356 222.508H59.3761V232.508H65.1356V222.508ZM446.323 133H108.454V143H446.323V133ZM451.323 319V138H441.323V319H451.323ZM108.454 324H446.323V314H108.454V324ZM103.454 138V319H113.454V138H103.454Z"
          fill="white" mask="url(#path-2-inside-1_76_267)"/>
</svg>
